<?xml version="1.0" standalone="no"?>
<!DOCTYPE svg PUBLIC "-//W3C//DTD SVG 20010904//EN"
 "http://www.w3.org/TR/2001/REC-SVG-20010904/DTD/svg10.dtd">
<svg version="1.0" xmlns="http://www.w3.org/2000/svg"
 width="823.000000pt" height="463.000000pt" viewBox="0 0 823.000000 463.000000"
 preserveAspectRatio="xMidYMid meet">

<g transform="translate(0.000000,463.000000) scale(0.100000,-0.100000)"
fill="#000000" stroke="none">
<path d="M0 2315 l0 -2315 4115 0 4115 0 0 2315 0 2315 -4115 0 -4115 0 0
-2315z m3970 1413 c0 -15 -28 -8 -34 8 -10 25 4 37 20 17 7 -10 14 -21 14 -25z
m-45 -65 c9 -45 -11 -51 -29 -8 -18 41 -11 75 9 53 7 -7 16 -27 20 -45z m-69
-97 c-3 -14 -2 -28 4 -31 18 -11 10 -23 -20 -30 -42 -9 -39 -35 3 -33 19 1 39
-2 44 -5 22 -14 70 5 87 34 17 29 39 36 65 20 7 -5 19 -34 26 -66 12 -50 12
-64 -1 -102 -15 -43 -14 -46 4 -59 11 -8 19 -21 18 -29 -3 -19 -49 -45 -80
-45 -11 -1 -32 -7 -45 -14 -29 -16 -13 -30 27 -22 30 7 62 -7 43 -18 -19 -12
-12 -24 23 -36 36 -12 49 -38 40 -76 -4 -16 -20 -27 -54 -38 -64 -21 -99 -20
-162 4 -104 39 -87 14 27 -41 82 -40 125 -73 112 -86 -4 -3 5 -22 20 -41 21
-28 24 -38 15 -53 -15 -23 -1 -32 37 -24 34 7 37 0 45 -83 7 -67 11 -73 41
-62 14 5 25 8 25 6 0 -2 32 6 72 18 59 18 74 27 79 47 5 16 7 18 8 7 1 -10 6
-18 11 -18 6 0 10 -7 10 -15 0 -8 5 -15 10 -15 6 0 10 -7 10 -15 0 -8 -5 -15
-11 -15 -5 0 -7 -5 -3 -11 3 -6 15 -9 25 -6 13 3 23 -2 31 -16 18 -34 18 -48
0 -43 -69 18 -69 18 -97 -30 -26 -44 -26 -47 -19 -170 4 -68 10 -126 14 -129
4 -2 13 13 20 35 11 33 11 42 -1 57 -13 16 -12 17 4 4 21 -17 21 -13 1 34 -8
20 -10 34 -5 30 6 -3 11 1 11 9 0 9 4 16 9 16 13 0 20 -25 15 -52 -3 -18 -1
-17 10 7 8 17 29 44 47 60 l33 30 -25 -35 c-37 -51 -77 -141 -92 -207 -12 -51
-11 -63 4 -103 9 -25 22 -70 27 -100 9 -47 49 -152 82 -211 22 -41 38 -89 29
-89 -5 0 -9 5 -9 11 0 6 -16 43 -35 83 -19 40 -35 76 -35 80 0 4 -5 12 -10 19
-6 7 -17 21 -25 32 -14 19 -15 19 -7 -4 11 -32 -7 -72 -29 -66 -13 4 -18 -3
-23 -30 -9 -45 -61 -95 -100 -95 -28 0 -29 -1 -23 -43 6 -40 -9 -116 -26 -133
-15 -15 -6 -33 28 -53 32 -19 34 -23 31 -64 -2 -24 -9 -58 -17 -76 -13 -28
-17 -30 -48 -25 -38 8 -39 10 19 -56 18 -20 30 -44 28 -56 -3 -20 4 -40 38
-107 18 -36 18 -52 -1 -67 -9 -8 -15 -29 -15 -56 0 -89 -69 -102 -72 -13 -1
24 0 60 2 80 2 22 -5 53 -18 81 -12 24 -22 52 -22 61 0 9 -4 17 -9 17 -13 0
-24 -37 -15 -51 3 -6 2 -14 -5 -18 -6 -4 -18 -37 -27 -73 -15 -59 -15 -72 -3
-105 8 -21 13 -53 11 -70 -3 -28 -7 -33 -30 -34 -25 -1 -24 -2 7 -11 19 -5 62
-7 95 -5 209 18 440 26 451 17 7 -6 20 -8 29 -4 30 12 30 -24 0 -54 -48 -48
-158 -76 -294 -77 -112 0 -115 -1 -127 -25 -17 -33 -16 -59 2 -94 17 -33 20
-66 5 -66 -17 0 -30 48 -30 111 l0 59 -42 0 c-24 1 -79 7 -123 15 -44 8 -119
15 -167 15 -75 0 -88 -2 -88 -16 0 -13 -6 -15 -32 -10 -18 4 -77 9 -131 11
-76 3 -99 0 -103 -10 -3 -8 -12 -11 -20 -8 -10 3 -12 0 -8 -10 4 -11 35 -19
107 -28 56 -8 110 -13 121 -11 27 3 44 -15 42 -46 -2 -45 -12 -52 -48 -34 -40
19 -146 22 -157 4 -4 -7 -22 -14 -39 -14 -19 -1 -32 -6 -32 -14 0 -8 12 -11
40 -7 41 6 45 2 41 -40 -1 -9 4 -17 13 -17 10 0 15 8 13 22 -2 20 2 22 38 20
61 -5 77 -12 71 -30 -3 -10 1 -7 10 6 15 20 54 32 54 16 0 -29 -28 -87 -47
-99 -13 -9 -21 -20 -18 -25 4 -6 -3 -10 -14 -10 -11 0 -19 6 -17 13 1 6 1 9
-1 5 -3 -5 -16 -8 -29 -8 -16 0 -24 -6 -24 -17 0 -12 -3 -14 -10 -7 -14 14
-110 -4 -110 -20 0 -6 -16 -12 -35 -13 -31 -3 -35 0 -35 20 0 13 -4 27 -8 33
-10 11 -32 85 -32 108 0 9 5 15 11 14 18 -5 47 54 48 96 1 22 8 47 16 56 13
14 14 22 4 42 -9 21 -8 30 6 52 15 23 18 55 19 219 2 187 3 196 38 327 20 74
50 176 68 225 18 50 36 108 40 130 8 39 44 140 96 275 24 61 25 71 18 180 -9
137 -8 149 17 176 30 32 39 76 22 100 -54 71 -79 160 -65 234 6 36 12 45 32
50 24 6 25 8 22 86 -8 249 -11 292 -30 344 -18 52 -21 55 -58 61 -79 11 -99
34 -105 123 -3 41 -1 51 18 63 21 14 25 13 52 -15 35 -35 41 -27 41 54 0 53 0
54 38 70 27 10 44 26 55 50 15 30 43 51 71 53 4 1 5 -10 2 -23z m64 -6 c0 -5
-7 -10 -16 -10 -8 0 -12 5 -9 10 3 6 10 10 16 10 5 0 9 -4 9 -10z m294 -136
c17 -7 23 -54 7 -54 -14 0 -41 41 -35 52 6 10 8 10 28 2z m-614 -24 c0 -5 -4
-10 -10 -10 -5 0 -10 5 -10 10 0 6 5 10 10 10 6 0 10 -4 10 -10z m530 -140 c0
-5 -4 -10 -9 -10 -6 0 -13 5 -16 10 -3 6 1 10 9 10 9 0 16 -4 16 -10z m3270
-294 c0 -8 -5 -18 -11 -21 -5 -4 -15 -17 -20 -28 -30 -66 -56 -97 -81 -97 -18
0 -20 -5 -14 -32 l6 -33 -17 28 c-10 15 -24 27 -33 27 -8 0 -21 4 -29 9 -9 6
0 15 35 32 27 13 71 47 99 76 53 55 65 62 65 39z m-6792 -89 c33 -45 33 -46
14 -65 -19 -19 -20 -19 -50 4 -35 28 -50 77 -31 100 17 21 29 14 67 -39z m72
-67 c0 -10 7 -20 15 -24 8 -3 15 -17 15 -32 0 -18 -4 -24 -13 -21 -25 9 -45
-90 -47 -230 0 -13 -4 -23 -10 -23 -6 0 -10 33 -10 80 0 66 -3 82 -17 87 -11
4 -21 0 -27 -12 -6 -10 -21 -28 -32 -41 -17 -19 -24 -21 -32 -12 -12 16 -11
98 2 98 5 0 18 7 28 17 10 9 18 12 18 6 0 -5 18 -7 43 -4 34 5 43 10 45 28 2
13 -5 29 -17 39 -11 10 -17 22 -14 27 3 5 9 4 13 -3 5 -8 10 -2 15 19 7 32 25
34 25 1z m6521 0 c5 0 9 -4 9 -10 0 -5 -9 -10 -20 -10 -13 0 -18 -5 -14 -15 4
-8 1 -15 -4 -15 -14 0 -25 36 -17 51 4 6 14 8 22 5 8 -3 19 -6 24 -6z m-81
-40 c0 -5 -9 -14 -20 -20 -11 -6 -20 -15 -20 -21 0 -6 7 -6 19 1 26 13 28 13
35 -6 14 -36 -43 -61 -62 -28 -5 9 -15 14 -21 10 -6 -4 -9 -11 -6 -16 3 -5 -4
-11 -15 -15 -25 -8 -70 -52 -62 -60 3 -3 -7 -17 -23 -30 -32 -26 -51 -32 -39
-14 4 7 7 26 8 43 1 25 8 34 36 47 21 10 37 26 40 40 4 15 20 31 42 41 20 10
39 22 43 28 8 13 45 13 45 0z m-3520 -22 c0 -4 -6 -8 -14 -8 -16 0 -28 -24
-31 -65 -3 -41 -2 -40 -25 -20 -11 10 -20 26 -20 36 0 13 -5 17 -17 12 -16 -6
-16 -5 -4 10 7 9 10 17 6 17 -4 0 -3 6 3 13 12 13 102 19 102 5z m-149 -62
c-17 -30 -31 -65 -31 -77 0 -22 0 -22 20 -4 18 17 20 17 14 2 -7 -19 12 -24
20 -4 6 16 36 -20 35 -42 -1 -13 -2 -12 -6 2 -4 16 -33 25 -33 10 1 -21 31
-44 52 -41 18 2 24 10 25 33 2 23 1 26 -6 11 -5 -12 -10 -16 -14 -9 -10 16 3
43 19 43 8 0 17 7 20 15 9 22 24 18 24 -6 0 -11 -4 -18 -9 -15 -12 8 -20 -39
-9 -57 6 -12 -2 -17 -42 -26 -28 -6 -59 -11 -68 -11 -10 0 -34 -11 -54 -25
-46 -31 -48 -31 -48 4 0 38 82 237 105 253 20 14 16 -2 -14 -56z m-2630 -19
c-8 -8 -10 -1 -7 23 6 53 9 58 13 21 3 -18 0 -38 -6 -44z m2456 66 c-15 -2
-25 -9 -21 -14 4 -7 -10 -8 -40 -4 -31 5 -46 4 -46 -4 0 -6 5 -11 11 -11 5 0
7 -4 4 -10 -3 -5 1 -23 10 -40 10 -20 13 -36 7 -43 -10 -14 -17 -175 -7 -165
4 4 11 26 15 50 19 100 49 127 70 64 6 -19 17 -37 25 -40 8 -3 12 -11 9 -19
-2 -7 5 -24 16 -37 12 -14 18 -30 14 -39 -4 -9 -9 -28 -11 -43 -4 -20 -12 -28
-32 -30 l-26 -3 31 -14 c28 -13 31 -18 23 -43 -4 -16 -6 -35 -3 -43 3 -7 1
-16 -4 -19 -11 -6 -4 -54 9 -62 24 -15 5 -21 -26 -8 -48 20 -62 18 -40 -6 10
-11 24 -20 30 -20 7 0 18 -7 26 -16 8 -9 -5 -6 -35 10 -27 14 -79 36 -118 48
-52 17 -68 26 -65 38 5 20 -11 35 -46 43 -23 6 -26 11 -20 37 3 19 1 30 -6 30
-14 0 -15 27 0 32 13 4 -6 58 -21 58 -6 0 -18 -16 -27 -35 -9 -19 -20 -35 -25
-35 -11 0 -10 14 3 27 7 7 3 12 -16 17 -14 4 -30 4 -34 2 -11 -7 -1 -59 13
-68 6 -4 -1 -8 -15 -8 -30 0 -63 30 -41 37 6 3 12 11 12 18 0 7 5 15 11 17 5
2 11 18 11 37 1 25 3 29 10 17 5 -9 6 -21 3 -26 -9 -15 41 -12 54 3 15 19 -30
82 -47 65 -15 -15 -16 -18 8 92 11 51 20 98 20 103 0 5 14 5 32 2 25 -6 30 -4
25 8 -4 12 11 18 76 31 109 21 124 23 177 23 26 0 33 -2 17 -4z m4381 -9 c15
-3 22 -11 20 -22 -3 -13 -14 -17 -48 -18 -32 0 -45 -5 -45 -15 -1 -25 -17 -41
-36 -36 -12 3 -19 0 -19 -9 0 -9 -7 -14 -17 -12 -11 2 -19 -5 -21 -17 -2 -11
-17 -37 -34 -59 -20 -25 -32 -54 -36 -82 -4 -38 -8 -44 -28 -44 -35 0 -39 18
-10 45 29 26 34 45 12 45 -9 0 -15 21 -20 71 -4 38 -14 88 -22 111 -7 22 -12
44 -9 48 5 8 270 3 313 -6z m-2850 -49 c1 -32 -3 -45 -13 -45 -7 0 -15 -6 -18
-12 -3 -9 -12 -6 -28 10 -20 19 -21 22 -6 22 10 0 24 15 34 35 9 19 20 35 24
35 3 0 7 -20 7 -45z m282 35 c0 -5 -7 -10 -16 -10 -8 0 -12 5 -9 10 3 6 10 10
16 10 5 0 9 -4 9 -10z m120 -92 c0 -19 -23 -5 -38 23 -9 18 -25 39 -34 48 -10
8 -18 20 -18 26 1 11 89 -85 90 -97z m-1610 56 c0 -17 -22 -14 -28 4 -2 7 3
12 12 12 9 0 16 -7 16 -16z m1068 -26 c2 -10 -8 -17 -30 -21 -18 -4 -44 -9
-58 -12 -25 -5 -25 -5 -2 6 15 8 21 18 17 31 -5 13 -2 16 9 12 11 -4 16 0 16
11 0 16 2 16 23 3 12 -9 23 -22 25 -30z m584 -2 c10 -11 18 -15 18 -10 0 6 -5
15 -12 22 -6 6 -8 15 -4 19 10 10 60 -45 85 -95 27 -52 44 -54 39 -5 -3 36 -2
38 32 40 34 3 34 3 12 -13 -12 -8 -22 -23 -22 -33 0 -9 -5 -22 -12 -29 -8 -8
-6 -24 10 -63 12 -28 19 -55 16 -61 -7 -12 -34 10 -34 28 0 7 -6 19 -13 26 -7
7 -24 42 -37 77 -14 34 -29 61 -35 60 -5 -2 -8 -10 -7 -17 2 -8 -5 -20 -15
-28 -11 -8 -14 -17 -8 -21 18 -14 14 -46 -7 -65 -27 -23 -44 -23 -51 2 -4 14
-11 18 -24 14 -11 -4 -7 3 11 20 17 13 32 24 35 24 19 -2 21 4 7 18 -9 8 -16
23 -16 31 0 14 2 14 18 0 23 -21 32 -21 32 -3 0 8 -14 28 -31 44 -24 22 -30
35 -24 48 6 15 8 16 13 4 3 -8 13 -23 24 -34z m1614 -13 c6 -51 5 -58 -16 -75
-25 -20 -40 -16 -40 12 0 10 -5 20 -10 22 -13 4 31 97 47 98 7 0 15 -24 19
-57z m-6479 31 c-3 -3 -12 -4 -19 -1 -8 3 -5 6 6 6 11 1 17 -2 13 -5z m101 -1
c-10 -2 -28 -2 -40 0 -13 2 -5 4 17 4 22 1 32 -1 23 -4z m4455 -12 c2 -11 0
-24 -6 -30 -9 -9 -6 -13 11 -17 17 -5 22 -14 22 -40 0 -18 5 -36 10 -39 6 -3
10 -22 10 -41 0 -25 7 -42 23 -55 22 -18 22 -18 1 -19 -11 0 -24 -3 -28 -7 -4
-5 -11 -8 -14 -9 -4 0 -20 -6 -37 -13 -16 -6 -43 -17 -60 -23 -16 -6 -41 -19
-55 -28 -51 -33 -131 -59 -129 -43 0 12 159 86 244 114 51 17 52 18 35 29 -8
5 -15 30 -17 61 -2 29 -10 63 -18 75 -8 13 -15 32 -15 44 0 11 -6 20 -12 21
-10 0 -10 2 0 6 6 2 12 11 12 19 0 21 17 17 23 -5z m214 -88 c27 -23 27 -24 4
-17 -16 4 -21 3 -17 -5 4 -6 2 -11 -3 -11 -6 0 -11 8 -12 18 0 10 -3 12 -6 4
-8 -20 -23 -3 -23 27 0 16 3 44 7 62 l7 34 8 -44 c5 -30 17 -53 35 -68z
m-4859 75 c-17 -26 -58 -37 -58 -16 0 21 21 38 48 38 23 0 24 -1 10 -22z
m2573 -71 c-28 -47 -63 -95 -77 -106 -15 -12 -24 -21 -20 -21 4 0 4 -5 1 -10
-4 -6 -12 -5 -21 4 -12 13 -11 19 10 51 14 20 26 30 29 23 5 -18 32 5 52 45
21 42 19 61 -5 54 -11 -3 -20 0 -20 6 0 10 88 46 98 41 2 -1 -20 -40 -47 -87z
m645 46 c-9 -9 -36 18 -36 35 0 12 5 11 21 -7 12 -12 18 -25 15 -28z m-2423
13 c18 -8 94 -75 169 -150 135 -133 137 -136 115 -151 -26 -18 -41 -20 -30 -2
11 18 14 47 4 47 -5 0 -11 -7 -15 -15 -3 -8 -10 -15 -16 -15 -8 0 -8 6 0 20 9
16 8 20 -5 20 -8 0 -15 -5 -15 -11 0 -5 -5 -7 -10 -4 -6 4 -4 12 5 21 20 20
19 23 -5 17 -11 -3 -20 0 -20 6 0 6 -5 11 -11 11 -5 0 -7 -6 -3 -12 4 -7 -24
19 -63 57 -38 39 -76 85 -84 103 -7 18 -21 32 -29 32 -8 0 -21 9 -28 20 -15
24 -4 26 41 6z m2177 4 c0 -5 -5 -10 -11 -10 -5 0 -7 5 -4 10 3 6 8 10 11 10
2 0 4 -4 4 -10z m3783 -7 c-4 -10 -16 -26 -28 -35 -11 -10 -15 -17 -9 -18 5 0
15 5 22 12 6 6 15 9 19 5 8 -9 18 -1 -102 -80 -55 -36 -115 -84 -133 -107 -31
-38 -108 -87 -119 -77 -3 3 6 11 19 17 29 15 77 59 89 82 5 10 -11 -2 -37 -27
-25 -25 -53 -45 -61 -45 -9 0 14 28 51 61 37 34 65 67 62 74 -2 7 1 19 7 27
14 17 71 43 62 28 -12 -19 13 -10 56 23 124 90 111 83 102 60z m92 7 c3 -5 -1
-10 -9 -10 -9 0 -16 5 -16 10 0 6 4 10 9 10 6 0 13 -4 16 -10z m-6775 -12 c0
-7 -4 -19 -9 -27 -8 -12 -12 -12 -25 -2 -8 7 -12 19 -9 27 6 17 43 19 43 2z
m452 -13 c-5 -28 -22 -44 -22 -21 0 21 11 46 20 46 4 0 5 -11 2 -25z m1984 11
c3 -7 -20 -53 -51 -100 -32 -48 -54 -90 -50 -94 3 -3 11 0 16 8 9 13 10 12 5
-2 -3 -10 -1 -20 5 -23 5 -4 7 -11 3 -16 -3 -5 -9 -7 -14 -4 -4 3 -10 -5 -13
-16 -4 -16 -11 -20 -23 -15 -12 5 -25 -2 -40 -21 -22 -26 -23 -27 -24 -7 0 12
7 24 15 28 8 3 15 12 15 20 0 8 6 21 13 28 23 24 106 170 107 187 0 16 -40
-37 -45 -59 -3 -16 -12 -30 -18 -33 -7 -2 -23 -26 -36 -53 -13 -27 -41 -70
-62 -96 -22 -26 -39 -50 -39 -54 0 -4 -22 -41 -48 -83 -97 -154 -94 -197 3
-51 25 37 45 71 45 75 0 4 9 18 20 32 29 37 24 16 -10 -42 -16 -27 -33 -56
-37 -64 -3 -8 -26 -44 -50 -80 -24 -35 -46 -75 -49 -87 -3 -12 -12 -25 -20
-28 -18 -7 -17 -6 2 33 9 18 14 35 11 38 -6 5 -37 -50 -37 -66 0 -5 7 -17 16
-26 9 -9 13 -19 9 -23 -4 -4 -10 -1 -12 6 -3 6 -11 12 -19 12 -15 0 -8 -27 13
-48 19 -19 16 -46 -7 -67 -15 -13 -17 -22 -9 -36 13 -26 3 -24 -33 6 -30 25
-29 27 7 29 11 1 20 6 20 13 0 6 3 15 7 19 12 11 -1 24 -17 17 -18 -6 -20 13
-3 23 8 5 6 11 -6 20 -10 7 -16 20 -14 30 2 12 -4 20 -17 22 -28 6 -45 21 -39
37 3 7 1 22 -5 34 -9 17 -8 20 12 23 12 2 31 -6 41 -16 19 -19 20 -19 42 10
13 16 35 43 50 60 33 39 84 125 84 142 0 7 11 25 25 40 14 15 25 30 25 34 0
13 -38 9 -43 -4 -3 -8 -6 -6 -6 5 -1 11 6 17 19 17 20 0 26 11 14 23 -4 3 -8
28 -10 54 -4 73 -15 133 -24 133 -11 0 -60 -77 -60 -94 0 -7 -7 -19 -15 -26
-9 -7 -14 -19 -11 -27 3 -7 1 -13 -4 -13 -6 0 -13 0 -17 0 -4 0 -8 6 -9 13 0
6 -2 18 -2 25 -3 20 -71 15 -80 -5 -5 -14 -8 -9 -13 17 -6 35 -6 35 -16 10
l-11 -25 -10 25 c-8 22 -10 19 -21 -30 -23 -100 -19 -97 -57 -54 -27 32 -34
47 -34 84 0 44 1 46 49 68 27 12 62 22 77 22 16 0 61 6 99 14 39 8 95 16 127
19 54 5 57 4 67 -21 14 -35 30 -143 24 -159 -7 -19 11 -16 29 5 25 29 61 93
55 98 -3 3 -17 -7 -32 -23 l-27 -28 7 35 c4 19 14 47 23 62 13 22 13 29 3 42
-11 13 -11 16 2 16 8 0 17 -6 20 -12 3 -10 9 -10 26 0 12 7 27 10 33 6 6 -4 8
-3 4 4 -5 9 3 13 47 21 4 0 10 -5 13 -13z m3629 -12 c-11 -8 -26 -12 -33 -9
-8 3 -21 5 -30 5 -15 0 -15 2 -2 10 8 5 31 10 50 10 33 -1 34 -1 15 -16z
m-850 -10 c17 -8 21 -12 10 -9 -47 14 -105 17 -105 6 0 -6 5 -11 10 -11 6 0
10 -5 10 -11 0 -6 -9 -8 -20 -4 -11 3 -20 2 -20 -3 0 -5 10 -13 23 -16 19 -5
20 -8 6 -16 -9 -5 -22 -23 -29 -40 -19 -46 -30 -36 -30 30 0 33 4 60 10 60 6
0 10 7 10 15 0 20 84 20 125 -1z m305 6 c0 -5 -2 -10 -4 -10 -3 0 -8 5 -11 10
-3 6 -1 10 4 10 6 0 11 -4 11 -10z m780 0 c0 -6 -11 -8 -26 -4 -20 5 -25 3
-22 -9 2 -9 0 -16 -4 -16 -24 -2 -30 0 -25 13 3 8 1 17 -6 20 -7 2 9 5 36 5
26 1 47 -4 47 -9z m-1870 -10 c0 -5 -4 -10 -10 -10 -5 0 -10 5 -10 10 0 6 5
10 10 10 6 0 10 -4 10 -10z m1058 -10 c11 -18 10 -20 -8 -20 -13 0 -20 7 -20
20 0 11 3 20 8 20 4 0 13 -9 20 -20z m1313 -31 c3 -19 9 -40 13 -47 5 -8 0
-12 -13 -12 -13 0 -21 -7 -21 -16 0 -11 6 -15 20 -11 13 3 20 0 20 -9 0 -8 -7
-14 -15 -14 -17 0 -20 -25 -5 -35 6 -3 10 -1 10 4 0 6 5 11 10 11 7 0 7 -7 -1
-21 -9 -18 -13 -19 -21 -8 -7 11 -11 11 -15 2 -2 -7 -9 -13 -14 -13 -6 0 -5 8
1 20 8 14 7 28 -4 52 l-14 33 -1 -30 c-2 -35 -24 -65 -63 -85 -16 -7 -28 -20
-28 -27 0 -14 -19 -36 -54 -63 -18 -14 -18 -14 -8 5 5 11 18 42 27 68 10 27
23 51 30 54 8 2 17 18 20 33 5 22 11 27 23 23 14 -6 15 -4 5 9 -11 12 -8 19
12 38 14 13 25 31 25 41 0 19 28 41 45 35 5 -1 12 -18 16 -37z m-2175 4 c-10
-10 -19 5 -10 18 6 11 8 11 12 0 2 -7 1 -15 -2 -18z m969 17 c-27 -12 -43 -12
-25 0 8 5 22 9 30 9 10 0 8 -3 -5 -9z m799 -4 c-5 -13 -34 -31 -34 -21 0 5 30
35 35 35 3 0 2 -6 -1 -14z m-5797 -26 c8 0 27 -9 41 -21 l27 -21 -30 8 -29 7
18 -29 c10 -16 27 -38 37 -50 40 -44 58 -195 24 -207 -9 -4 -14 17 -17 84 -5
78 -9 95 -39 144 -37 61 -59 69 -85 30 -13 -20 -14 -31 -5 -56 13 -39 14 -59
2 -59 -5 0 -11 15 -14 33 -3 17 -10 51 -15 75 -9 40 -8 42 15 42 15 0 22 4 18
11 -4 6 1 16 11 24 16 12 19 12 22 -1 2 -8 10 -14 19 -14z m3811 -7 c-2 -20 1
-53 7 -72 7 -20 10 -53 8 -73 -5 -33 -7 -36 -24 -25 -10 6 -19 23 -19 37 0 14
-7 38 -15 54 -18 33 -19 56 -4 56 6 0 8 9 4 20 -6 18 12 34 44 39 2 1 1 -16
-1 -36z m793 28 c-8 -5 -20 -7 -28 -4 -21 8 -15 13 15 13 20 0 23 -3 13 -9z
m-5067 -28 c-4 -16 -8 -38 -8 -49 -2 -38 -26 -14 -26 25 0 41 6 51 28 51 11 0
12 -7 6 -27z m1024 11 c49 -4 62 -9 62 -23 0 -9 7 -26 15 -39 14 -20 14 -21 0
-16 -8 3 -15 11 -15 17 0 6 -2 8 -5 5 -6 -6 18 -58 28 -58 4 0 7 5 7 11 0 5 5
7 10 4 6 -4 8 -11 5 -16 -7 -10 18 -39 33 -39 5 0 12 -9 15 -20 4 -15 14 -20
36 -20 28 0 31 -3 31 -31 0 -29 2 -30 30 -24 27 6 30 4 30 -19 0 -35 -11 -38
-56 -16 -21 11 -48 20 -60 20 -14 0 -31 12 -46 33 -12 17 -30 40 -40 51 -16
18 -17 17 -23 -18 -4 -20 -11 -36 -15 -36 -5 0 -6 8 -3 19 6 24 -19 33 -54 20
-19 -7 -29 -7 -31 0 -2 6 -10 11 -18 11 -9 0 -12 -5 -9 -11 4 -6 -2 -5 -14 3
-12 7 -27 25 -33 40 -7 15 -15 23 -18 18 -5 -9 -160 130 -160 143 0 5 205 -1
298 -9z m3780 -9 c13 -29 5 -33 -14 -7 -15 20 -18 32 -6 32 5 0 14 -11 20 -25z
m1492 15 c0 -9 -32 -30 -46 -30 -4 0 1 9 11 20 19 21 35 26 35 10z m-4778 -40
c27 -17 52 -30 56 -30 5 0 19 -19 32 -42 12 -24 43 -64 68 -90 25 -26 43 -51
39 -54 -4 -4 -7 -2 -7 5 0 7 -4 9 -10 6 -19 -12 -11 -35 12 -32 18 2 23 -4 28
-33 4 -19 18 -54 33 -77 32 -50 33 -59 10 -67 -10 -3 -26 -11 -36 -18 -14 -11
-19 -10 -27 2 -5 8 -6 18 -3 23 3 4 -1 14 -9 20 -22 18 -38 86 -37 151 2 56
-11 86 -37 86 -8 0 -14 5 -14 10 0 6 -30 10 -71 10 -60 0 -70 2 -65 15 3 9 -3
23 -14 32 -11 10 -20 23 -20 30 0 20 -17 15 -23 -7 -3 -11 -11 -20 -17 -20
-10 0 -10 3 0 15 6 8 9 23 5 35 -6 19 -8 20 -19 5 -9 -13 -11 -9 -8 25 l4 42
41 -6 c23 -4 63 -20 89 -36z m1618 30 c0 -5 -2 -10 -4 -10 -3 0 -8 5 -11 10
-3 6 -1 10 4 10 6 0 11 -4 11 -10z m890 -29 c-11 -22 -25 -43 -32 -47 -7 -5
-5 4 5 19 10 15 15 32 11 38 -4 6 0 15 7 20 27 17 29 9 9 -30z m-2722 -2 c-10
-29 -7 -89 8 -136 4 -17 2 -23 -8 -23 -44 0 -112 106 -88 135 17 21 -27 31
-49 11 -22 -20 -31 -20 -31 -1 0 8 9 19 20 25 11 6 20 8 20 5 0 -3 8 -1 18 4
9 6 40 11 69 11 l52 0 -11 -31z m2623 12 c13 -11 21 -23 17 -27 -4 -4 -15 -1
-24 7 -14 11 -18 11 -30 -6 -19 -26 -30 -10 -14 20 16 30 21 31 51 6z m59 -2
c0 -6 -4 -7 -10 -4 -5 3 -10 11 -10 16 0 6 5 7 10 4 6 -3 10 -11 10 -16z
m1383 -5 c-9 -15 -19 -21 -21 -15 -4 13 16 41 29 41 5 0 2 -12 -8 -26z m-2260
-77 c-14 -23 -2 -144 22 -218 28 -88 28 -120 1 -42 -50 142 -49 134 -40 249 7
94 9 103 15 64 3 -25 5 -48 2 -53z m3106 62 c-22 -14 -33 -10 -19 6 7 8 17 12
22 9 6 -4 5 -10 -3 -15z m511 17 c0 -3 -4 -8 -10 -11 -5 -3 -10 -1 -10 4 0 6
5 11 10 11 6 0 10 -2 10 -4z m-6433 -38 c-3 -8 -6 -5 -6 6 -1 11 2 17 5 13 3
-3 4 -12 1 -19z m5483 12 c0 -5 -5 -10 -11 -10 -5 0 -7 5 -4 10 3 6 8 10 11
10 2 0 4 -4 4 -10z m-735 -59 c-9 -68 -12 -76 -32 -59 -11 9 -14 23 -9 56 7
53 10 59 32 59 14 0 15 -8 9 -56z m1805 37 c0 -16 -3 -19 -11 -11 -6 6 -8 16
-5 22 11 17 16 13 16 -11z m-6750 -18 c0 -18 -6 -33 -15 -36 -8 -4 -15 -15
-15 -26 0 -27 -24 -17 -28 11 -2 14 5 31 17 42 12 11 21 24 21 29 0 6 5 10 10
10 6 0 10 -14 10 -30z m1090 15 c0 -8 -2 -15 -4 -15 -2 0 -6 7 -10 15 -3 8 -1
15 4 15 6 0 10 -7 10 -15z m3457 9 c-3 -3 -12 -4 -19 -1 -8 3 -5 6 6 6 11 1
17 -2 13 -5z m1335 -47 c-88 -81 -141 -119 -158 -113 -8 3 -13 2 -10 -3 10
-16 -52 -35 -77 -23 -16 8 -18 11 -6 11 9 1 19 8 23 16 3 8 12 15 19 15 8 0
25 8 38 19 13 10 35 21 49 25 52 15 80 31 131 79 16 15 34 27 39 27 5 0 -17
-24 -48 -53z m-2972 23 c-6 -11 -7 -20 -2 -20 6 0 12 -9 15 -20 3 -11 1 -20
-5 -20 -6 0 -7 -16 -3 -40 4 -21 3 -45 -2 -52 -4 -7 -13 -29 -20 -48 -11 -31
-11 -27 -8 45 4 71 10 146 14 168 0 4 6 7 11 7 7 0 7 -6 0 -20z m1821 -23 c7
-17 42 -74 77 -125 34 -52 61 -97 58 -99 -2 -3 -10 6 -17 18 -6 13 -16 28 -21
33 -33 41 -80 110 -99 145 -11 23 -25 44 -30 47 -15 9 -10 24 5 18 8 -3 20
-20 27 -37z m1539 -19 c-22 -23 -40 -45 -40 -50 0 -4 -7 -8 -16 -8 -8 0 -12
-5 -9 -11 10 -15 -136 -149 -188 -174 -12 -5 -34 -22 -50 -37 -15 -16 -34 -28
-42 -28 -7 0 -15 -4 -17 -9 -1 -4 -34 -25 -72 -45 -48 -26 -72 -34 -79 -27 -6
6 -17 11 -24 11 -11 0 -11 -5 -3 -20 9 -16 8 -20 -6 -20 -9 0 -28 -9 -43 -19
-17 -12 -36 -18 -49 -14 -13 3 -22 1 -22 -6 0 -7 -5 -9 -10 -6 -6 4 -16 2 -23
-3 -11 -9 -66 -25 -92 -27 -5 -1 -26 -11 -45 -23 -61 -38 -69 -24 -14 27 31
29 38 32 59 23 20 -9 23 -9 18 3 -3 8 0 15 7 15 18 0 59 47 49 57 -4 4 19 9
52 10 47 1 59 -1 59 -13 0 -18 22 -14 28 4 2 7 -3 12 -12 12 -8 0 -20 9 -25
19 -8 15 -7 20 6 25 22 9 53 -2 49 -17 -1 -7 -1 -9 1 -4 3 4 13 7 23 7 10 0
20 6 23 14 3 8 16 12 34 10 15 -2 20 -1 11 2 -26 8 -22 33 6 43 31 12 130 73
134 83 2 4 16 8 30 8 22 0 24 2 12 11 -11 8 -7 9 18 4 31 -6 45 7 20 19 -7 4
-3 4 10 2 12 -2 22 -1 22 3 0 3 26 22 58 40 31 19 83 60 115 92 65 67 98 82
37 17z m-4992 5 c-1 -16 2 -37 6 -48 8 -20 7 -20 -8 -1 -16 20 -21 57 -9 69
11 11 12 8 11 -20z m1599 2 c0 -8 -4 -12 -9 -9 -5 3 -6 10 -3 15 9 13 12 11
12 -6z m-1097 -5 c0 -5 -7 -10 -16 -10 -8 0 -12 5 -9 10 3 6 10 10 16 10 5 0
9 -4 9 -10z m400 -25 c0 -8 -7 -15 -15 -15 -16 0 -20 12 -8 23 11 12 23 8 23
-8z m2980 -51 c-22 -32 -66 -87 -98 -122 -31 -36 -60 -74 -64 -86 -4 -15 -6
-9 -7 20 -1 32 5 46 29 69 17 16 30 34 30 41 0 7 3 14 8 16 4 2 27 27 50 56
24 28 47 50 52 47 4 -3 13 2 20 10 7 9 15 14 17 11 2 -2 -14 -30 -37 -62z
m-3817 49 c-7 -2 -13 -13 -13 -24 0 -10 -4 -19 -10 -19 -5 0 -10 9 -10 19 0
18 13 29 35 29 6 0 4 -2 -2 -5z m797 -23 c0 -5 -4 -10 -10 -10 -5 0 -10 5 -10
10 0 6 5 10 10 10 6 0 10 -4 10 -10z m-2145 -69 c-47 -85 -69 -93 -27 -9 20
41 41 71 46 67 4 -4 -4 -30 -19 -58z m2864 22 l-1 -48 -10 34 c-5 18 -7 40 -4
47 10 27 16 14 15 -33z m-1023 28 c-3 -4 -18 -6 -32 -3 -22 4 -26 2 -21 -12 4
-9 3 -16 -2 -16 -5 0 -11 9 -14 20 -4 18 0 20 35 20 21 0 37 -4 34 -9z m354
-6 c14 -8 21 -14 15 -14 -5 0 -21 6 -35 14 -14 8 -20 14 -15 14 6 0 21 -6 35
-14z m3897 9 c-3 -3 -12 -4 -19 -1 -8 3 -5 6 6 6 11 1 17 -2 13 -5z m-5273
-29 c-4 -8 -10 -12 -15 -9 -11 6 -2 24 11 24 5 0 7 -7 4 -15z m3940 -1 c3 -8
2 -12 -4 -9 -6 3 -10 10 -10 16 0 14 7 11 14 -7z m-2686 -14 c-7 -11 -16 -20
-21 -20 -4 0 -3 9 3 20 6 11 15 20 20 20 6 0 5 -9 -2 -20z m2182 13 c-8 -3
-22 -11 -30 -17 -13 -10 -13 -9 -1 7 7 9 21 17 30 16 13 0 14 -1 1 -6z m150
-3 c0 -5 -2 -10 -4 -10 -3 0 -8 5 -11 10 -3 6 -1 10 4 10 6 0 11 -4 11 -10z
m1585 3 c-11 -2 -31 -9 -44 -16 l-23 -12 23 -6 c24 -6 24 -6 -6 -18 -16 -7
-43 -14 -60 -17 -27 -3 -27 -3 -5 4 14 4 25 14 25 22 0 22 46 50 80 49 20 -1
23 -3 10 -6z m-5124 -20 c13 -15 12 -15 -8 -4 -24 12 -29 21 -14 21 5 0 15 -7
22 -17z m3435 2 c-3 -9 0 -15 9 -15 8 0 15 -4 15 -10 0 -13 -27 -13 -35 0 -5
8 -11 7 -21 -1 -12 -9 -12 -15 -2 -27 11 -13 10 -14 -9 -4 -30 17 -35 15 -28
-8 4 -11 2 -20 -4 -20 -6 0 -11 7 -11 16 0 11 -6 14 -20 9 -11 -4 -20 -2 -20
4 0 6 3 10 8 9 11 -2 55 19 82 41 30 24 44 27 36 6z m1759 5 c-3 -5 -11 -10
-16 -10 -6 0 -7 5 -4 10 3 6 11 10 16 10 6 0 7 -4 4 -10z m-4221 -21 c-6 -11
-24 -2 -24 11 0 5 7 7 15 4 8 -4 12 -10 9 -15z m456 11 c0 -5 -4 -10 -10 -10
-5 0 -10 5 -10 10 0 6 5 10 10 10 6 0 10 -4 10 -10z m2393 -16 c-4 -12 0 -14
22 -8 20 5 26 4 21 -5 -4 -6 -14 -11 -22 -11 -8 0 -14 -6 -15 -12 0 -10 -2
-10 -6 0 -2 6 -11 12 -19 12 -19 0 -18 17 4 29 22 14 22 14 15 -5z m1334 10
c-3 -3 -12 -4 -19 -1 -8 3 -5 6 6 6 11 1 17 -2 13 -5z m-377 -14 c8 -5 12 -12
8 -15 -9 -9 -48 4 -48 16 0 12 21 11 40 -1z m-3475 -19 c-3 -6 -11 -11 -17
-11 -6 0 -6 6 2 15 14 17 26 13 15 -4z m2115 9 c0 -5 -5 -10 -11 -10 -5 0 -7
5 -4 10 3 6 8 10 11 10 2 0 4 -4 4 -10z m-1437 -15 c-3 -9 -8 -14 -10 -11 -3
3 -2 9 2 15 9 16 15 13 8 -4z m3823 -22 c-4 -4 -11 -1 -16 7 -16 25 -11 35 7
17 9 -9 13 -20 9 -24z m-1046 23 c0 -3 -4 -8 -10 -11 -5 -3 -10 -1 -10 4 0 6
5 11 10 11 6 0 10 -2 10 -4z m1150 -12 c0 -8 -4 -12 -10 -9 -5 3 -10 10 -10
16 0 5 5 9 10 9 6 0 10 -7 10 -16z m-1285 -13 c-3 -6 -11 -8 -17 -5 -6 4 -5 9
3 15 16 10 23 4 14 -10z m-4190 -1 c3 -5 -1 -10 -9 -10 -9 0 -16 5 -16 10 0 6
4 10 9 10 6 0 13 -4 16 -10z m2881 -12 c11 -13 18 -31 16 -40 -3 -13 3 -18 21
-18 13 0 26 -3 30 -6 7 -7 -29 -44 -43 -44 -13 0 -30 34 -30 60 0 11 -7 32
-16 45 -20 31 -4 33 22 3z m474 -3 c0 -14 -4 -25 -9 -25 -10 0 -21 36 -13 44
12 13 22 5 22 -19z m-3782 -2 c32 -6 160 -67 205 -98 l21 -15 -23 0 c-14 0
-33 8 -44 18 -19 16 -19 16 -12 -7 6 -21 5 -22 -8 -10 -8 8 -12 20 -10 26 3 8
-3 13 -15 13 -11 0 -23 -6 -25 -12 -3 -7 -6 -3 -6 9 -1 16 -9 23 -33 28 -18 4
-53 21 -78 37 -25 16 -36 27 -25 23 11 -4 35 -9 53 -12z m388 2 c4 -8 10 -13
14 -10 5 3 11 1 15 -5 4 -7 12 -7 26 0 15 8 19 7 19 -4 0 -8 -7 -19 -16 -24
-12 -7 -13 -11 -5 -17 7 -4 22 1 33 12 20 17 21 17 15 0 -6 -16 -1 -30 24 -77
68 -122 66 -140 -16 -106 -38 16 -46 11 -17 -10 14 -11 10 -11 -23 0 -22 8
-56 21 -75 29 l-35 16 25 10 c18 7 20 10 8 10 -30 1 -20 21 10 21 17 0 32 8
40 21 11 18 9 24 -18 55 -16 19 -30 39 -30 44 0 6 -7 10 -15 10 -8 0 -15 2
-15 4 0 2 -3 11 -6 20 -4 12 0 16 15 16 12 0 24 -7 27 -15z m1231 9 c-3 -3
-12 -4 -19 -1 -8 3 -5 6 6 6 11 1 17 -2 13 -5z m-307 -24 c0 -5 -5 -10 -11
-10 -5 0 -7 5 -4 10 3 6 8 10 11 10 2 0 4 -4 4 -10z m65 -17 c3 -16 21 -43 38
-62 18 -19 25 -30 15 -25 -22 12 -78 83 -78 100 0 25 18 15 25 -13z m198 -16
c-3 -18 -10 -36 -15 -42 -7 -6 -7 2 -3 25 5 19 8 40 8 47 0 7 4 10 8 7 5 -3 6
-19 2 -37z m337 -16 c0 -6 7 -8 15 -5 8 4 15 2 15 -3 0 -5 14 -17 30 -27 17
-9 27 -22 24 -28 -4 -7 -9 -7 -13 0 -3 6 -19 14 -35 18 -19 4 -27 3 -23 -3 4
-6 0 -13 -8 -17 -18 -6 -20 5 -4 21 9 9 4 21 -19 49 -17 21 -29 41 -26 46 6
10 44 -34 44 -51z m1561 44 c1 -17 -18 -17 -25 0 -4 11 -1 15 10 13 8 -2 15
-7 15 -13z m-1841 -4 c0 -11 59 -33 71 -26 4 3 26 -7 47 -23 l39 -28 -21 -26
c-11 -14 -30 -28 -41 -30 -13 -2 -21 -12 -23 -31 -3 -26 4 -32 36 -28 6 1 12
-2 12 -7 0 -5 -34 -12 -76 -14 -53 -4 -80 -10 -92 -22 -16 -16 -14 -17 27 -10
35 6 43 4 39 -7 -3 -8 1 -22 10 -32 13 -15 13 -21 1 -45 -7 -15 -15 -30 -17
-34 -2 -5 1 -8 6 -8 6 0 14 10 17 23 11 35 55 88 67 81 6 -4 18 2 26 12 13 18
14 18 7 -6 -9 -30 -45 -97 -131 -243 -35 -59 -64 -111 -64 -116 0 -5 -7 -14
-15 -21 -11 -9 -15 -10 -15 -1 0 8 -5 7 -15 -3 -8 -8 -15 -17 -15 -20 0 -3
-11 -22 -25 -42 -15 -21 -23 -45 -20 -55 4 -12 -1 -19 -13 -24 -17 -5 -72 -74
-72 -90 0 -4 -7 -13 -15 -22 -24 -24 -29 -7 -8 24 11 15 26 43 33 62 7 18 33
56 57 85 25 28 49 59 55 69 8 17 7 18 -14 12 -19 -7 -21 -5 -11 6 6 8 13 25
15 39 2 19 8 24 25 23 15 -2 23 5 28 25 3 15 19 43 35 64 16 20 37 52 47 72
17 37 17 37 -9 61 -32 29 -38 24 -27 -22 8 -39 -7 -90 -36 -119 -22 -22 -19
-1 4 28 13 17 17 29 10 39 -8 12 -10 12 -19 -1 -5 -8 -10 -23 -10 -32 0 -10
-3 -18 -8 -18 -4 0 -6 18 -4 40 2 22 0 40 -6 40 -16 0 -44 -50 -37 -68 3 -9 3
-13 -1 -9 -9 8 -36 -42 -29 -53 3 -5 1 -11 -4 -14 -5 -4 -8 -30 -6 -59 2 -28
1 -47 -1 -40 -4 10 -10 10 -25 0 -23 -14 -25 -43 -3 -51 8 -3 12 -11 9 -17 -5
-7 -13 -5 -24 5 -10 9 -21 13 -26 9 -4 -5 -4 2 -1 15 5 14 3 22 -4 22 -7 0 -9
8 -5 19 3 10 -1 24 -10 31 -8 7 -15 19 -15 28 0 8 3 12 7 8 8 -8 31 92 32 137
1 15 5 35 10 45 28 57 61 130 61 136 0 12 25 33 47 40 13 4 27 1 37 -10 10 -9
19 -14 22 -12 6 6 -96 108 -108 108 -5 0 -6 5 -2 11 4 7 17 1 34 -16 l28 -27
22 41 c11 23 25 39 30 36 8 -5 23 24 26 50 2 23 17 45 30 45 8 0 14 -4 14 -9z
m335 -5 c17 -12 17 -13 -8 -18 -21 -4 -27 -1 -27 13 0 22 10 24 35 5z m-698
-18 c-3 -8 -6 -5 -6 6 -1 11 2 17 5 13 3 -3 4 -12 1 -19z m3163 2 c0 -5 -7
-10 -15 -10 -8 0 -15 5 -15 10 0 6 7 10 15 10 8 0 15 -4 15 -10z m-2930 -4 c0
-2 -7 -6 -15 -10 -8 -3 -15 -1 -15 4 0 6 7 10 15 10 8 0 15 -2 15 -4z m600
-25 c34 -31 37 -57 8 -75 -25 -15 -54 5 -50 35 1 13 2 34 2 47 0 28 2 28 40
-7z m2290 9 c0 -5 -9 -14 -20 -20 -14 -7 -20 -7 -20 0 0 5 7 10 15 10 8 0 15
5 15 10 0 6 2 10 5 10 3 0 5 -4 5 -10z m-3010 -40 c30 -38 36 -68 8 -39 -16
17 -48 66 -48 74 0 12 10 3 40 -35z m90 20 c0 -5 -5 -10 -11 -10 -5 0 -7 5 -4
10 3 6 8 10 11 10 2 0 4 -4 4 -10z m2004 -25 c-4 -8 -11 -15 -16 -15 -6 0 -5
6 2 15 7 8 14 15 16 15 2 0 1 -7 -2 -15z m-1269 -44 c-4 -23 -11 -41 -16 -41
-9 0 -3 64 8 83 11 18 15 -4 8 -42z m971 1 c-8 -7 -25 8 -37 31 -11 21 -10 21
15 -2 14 -14 24 -26 22 -29z m192 22 c-9 -9 -21 -13 -27 -9 -16 10 -3 25 22
25 20 0 20 -1 5 -16z m578 -14 c18 0 18 -34 -1 -50 -11 -9 -12 -17 -4 -32 14
-26 3 -36 -18 -15 -12 12 -16 30 -14 64 2 51 13 79 19 51 2 -10 10 -18 18 -18z
m-2819 -2 c-3 -8 -6 -5 -6 6 -1 11 2 17 5 13 3 -3 4 -12 1 -19z m670 -15 c-9
-9 -19 -14 -23 -11 -10 10 6 28 24 28 15 0 15 -1 -1 -17z m2520 11 c-3 -3 -12
-4 -19 -1 -8 3 -5 6 6 6 11 1 17 -2 13 -5z m453 -4 c0 -5 -8 -10 -17 -10 -15
0 -16 2 -3 10 19 12 20 12 20 0z m-3443 -51 c-7 -11 -13 -15 -15 -9 -8 22 -62
-62 -62 -95 0 -8 -4 -15 -10 -15 -16 0 1 -29 21 -35 10 -4 19 -14 19 -23 0
-13 -4 -12 -20 6 -26 27 -44 28 -37 2 3 -11 1 -18 -3 -15 -5 3 -11 1 -15 -5
-3 -5 1 -10 10 -10 12 0 14 -7 9 -27 l-5 -28 20 24 c23 25 29 16 8 -13 -14
-20 -51 -12 -43 10 3 7 1 16 -4 19 -6 4 -10 -7 -10 -24 0 -17 -4 -31 -10 -31
-20 0 -9 42 39 140 27 55 53 110 56 122 4 13 15 31 23 41 15 17 17 17 29 2 9
-13 9 -21 0 -36z m-47 31 c0 -5 -4 -10 -10 -10 -5 0 -10 5 -10 10 0 6 5 10 10
10 6 0 10 -4 10 -10z m878 -10 l21 -20 -28 -62 c-15 -35 -31 -90 -35 -122 -8
-75 -55 -215 -96 -290 -17 -32 -41 -95 -55 -142 -34 -119 -65 -191 -177 -423
-54 -112 -98 -205 -98 -207 0 -9 -60 -98 -60 -90 0 5 15 38 34 75 19 36 55
109 79 161 25 52 65 138 90 190 77 163 84 182 117 307 10 39 34 100 53 135 18
35 46 104 61 153 15 50 32 103 37 119 5 16 9 42 9 58 0 17 7 45 16 64 16 33
16 36 -2 49 -11 9 -14 14 -6 15 8 0 10 8 6 25 -7 30 5 32 34 5z m-428 0 c0 -5
-5 -10 -11 -10 -5 0 -7 5 -4 10 3 6 8 10 11 10 2 0 4 -4 4 -10z m-300 -16 c0
-8 5 -14 10 -14 17 0 11 -30 -10 -57 -11 -14 -20 -32 -20 -41 0 -11 -3 -12
-14 -3 -11 9 -18 5 -35 -22 -12 -19 -21 -40 -21 -46 0 -7 -10 -31 -22 -54 -18
-34 -47 -104 -48 -114 0 -2 5 -3 10 -3 6 0 10 5 10 12 0 17 34 87 42 88 8 0
-2 -30 -26 -75 -9 -16 -16 -39 -16 -50 -1 -18 -1 -19 -11 -2 -12 21 -34 23
-25 2 18 -44 18 -50 1 -30 -15 19 -16 18 -10 -20 5 -31 1 -47 -14 -70 -15 -22
-21 -25 -21 -12 0 37 -17 13 -49 -70 -18 -49 -44 -112 -58 -141 -13 -29 -22
-59 -19 -65 2 -7 5 -4 5 6 1 16 21 25 21 9 0 -15 -32 -117 -38 -123 -4 -4 -17
-3 -29 2 -28 10 -29 37 -5 81 10 18 28 58 41 88 12 30 26 64 31 75 141 323
140 318 117 343 -15 16 -15 18 3 18 15 0 20 -7 20 -26 1 -20 5 -16 19 20 9 25
23 54 29 65 33 58 82 180 78 192 -4 8 -1 11 5 7 6 -3 10 1 9 12 -3 28 -2 30
20 31 11 1 20 -4 20 -13z m-270 -34 c0 -16 -5 -32 -11 -35 -15 -10 -17 -4 -11
37 5 43 22 41 22 -2z m642 18 c-7 -7 -12 -8 -12 -2 0 14 12 26 19 19 2 -3 -1
-11 -7 -17z m2868 19 c0 -2 -13 -13 -30 -25 -20 -15 -30 -18 -30 -10 0 7 10
18 23 24 23 12 37 16 37 11z m-3323 -29 c-3 -8 -6 -5 -6 6 -1 11 2 17 5 13 3
-3 4 -12 1 -19z m2003 -63 c0 -5 -11 8 -25 30 -13 22 -24 45 -25 50 0 6 11 -8
25 -30 13 -22 24 -44 25 -50z m-2105 65 c3 -5 1 -10 -4 -10 -6 0 -11 5 -11 10
0 6 2 10 4 10 3 0 8 -4 11 -10z m642 -18 c-20 -19 -55 -8 -38 12 7 8 21 12 32
9 18 -5 19 -7 6 -21z m1753 -29 c13 -27 26 -56 31 -65 12 -23 11 -28 -1 -28
-5 0 -10 5 -10 11 0 19 -40 99 -50 99 -6 0 -6 -9 0 -25 5 -14 6 -25 3 -25 -4
0 -2 -5 5 -12 7 -7 12 -18 12 -26 0 -10 -7 -9 -32 5 -18 10 -34 21 -36 24 -1
3 -10 15 -18 25 -14 18 -15 16 -9 -21 4 -22 15 -55 26 -74 22 -37 22 -37 -34
-67 -16 -9 -30 -14 -32 -12 -16 18 -65 133 -61 144 6 16 145 86 156 79 5 -3
11 -1 15 5 10 16 12 13 35 -37z m-1832 30 c-10 -2 -26 -2 -35 0 -10 3 -2 5 17
5 19 0 27 -2 18 -5z m-1272 -30 c-6 -6 -36 9 -36 18 0 5 9 4 20 -3 10 -7 18
-14 16 -15z m152 -15 c24 -11 42 -21 40 -24 -6 -5 -59 13 -106 37 -35 18 -35
19 -7 13 17 -4 50 -15 73 -26z m432 17 c9 -11 8 -19 -4 -37 -9 -12 -17 -36
-17 -53 -1 -17 -3 -22 -6 -12 -2 9 -7 17 -10 17 -3 0 -12 -8 -19 -17 -12 -16
-13 -14 -7 16 3 19 15 43 25 53 11 11 17 26 14 34 -7 18 8 18 24 -1z m92 -3
c-3 -9 -15 -24 -26 -33 -17 -14 -18 -19 -8 -32 9 -10 10 -17 2 -22 -5 -3 -10
-15 -10 -26 0 -10 -8 -27 -19 -38 -10 -10 -21 -25 -25 -32 -3 -8 -3 0 0 16 4
17 6 40 6 53 -1 14 4 22 14 22 12 0 15 7 12 30 -3 18 1 35 9 41 7 6 13 17 13
23 0 7 9 12 19 13 15 1 18 -3 13 -15z m778 -8 c0 -8 -5 -12 -10 -9 -6 4 -8 11
-5 16 9 14 15 11 15 -7z m1910 6 c0 -5 -5 -10 -11 -10 -5 0 -7 5 -4 10 3 6 8
10 11 10 2 0 4 -4 4 -10z m-2580 -10 c0 -5 -5 -10 -11 -10 -5 0 -7 5 -4 10 3
6 8 10 11 10 2 0 4 -4 4 -10z m2550 -21 c0 -10 7 -19 15 -19 18 0 20 -16 4
-26 -6 -3 -15 0 -20 7 -7 11 -12 12 -28 2 -27 -17 -33 -4 -14 34 16 34 43 35
43 2z m-2038 -12 c-12 -13 -22 -33 -22 -45 0 -13 -7 -25 -15 -28 -8 -4 -15
-14 -15 -24 0 -10 -7 -23 -15 -30 -8 -7 -15 -20 -15 -30 0 -10 -7 -23 -15 -30
-8 -7 -15 -18 -15 -25 0 -7 -7 -18 -15 -25 -19 -16 -19 0 0 26 8 10 15 26 15
36 0 15 60 129 81 154 13 16 -1 25 -16 11 -7 -7 -34 -55 -60 -107 -54 -106
-53 -105 -60 -99 -2 3 7 25 20 49 13 25 28 54 34 66 25 55 75 125 86 121 6 -3
18 -1 26 3 23 15 24 1 1 -23z m-541 -18 c-5 -13 -10 -19 -10 -12 -1 15 10 45
15 40 3 -2 0 -15 -5 -28z m86 -37 c-8 -9 -17 -30 -21 -46 -10 -40 -17 -28 -9
17 3 22 11 37 19 37 8 0 14 8 15 18 0 11 2 12 6 4 3 -7 -2 -21 -10 -30z m463
-11 c-11 -23 -23 -41 -25 -41 -10 0 8 55 23 73 24 27 25 13 2 -32z m-940 29
c0 -5 -5 -10 -11 -10 -5 0 -7 5 -4 10 3 6 8 10 11 10 2 0 4 -4 4 -10z m2724
-28 c2 -4 -5 -14 -16 -21 -18 -11 -20 -11 -15 3 3 8 2 18 -3 21 -6 4 -10 11
-10 16 0 10 35 -5 44 -19z m288 -27 c3 -13 1 -22 -3 -19 -9 5 -13 44 -5 44 2
0 6 -11 8 -25z m-1976 -17 c4 -6 -1 -17 -11 -25 -17 -11 -17 -13 -2 -13 9 0
21 -9 27 -21 16 -28 4 -69 -19 -69 -23 0 -55 35 -45 51 4 6 7 26 6 43 -1 39
27 61 44 34z m-1052 -13 c3 -8 1 -15 -4 -15 -6 0 -10 7 -10 15 0 8 2 15 4 15
2 0 6 -7 10 -15z m2963 -7 c-3 -8 -6 -5 -6 6 -1 11 2 17 5 13 3 -3 4 -12 1
-19z m-87 -49 c0 -10 3 -19 8 -21 11 -5 79 -140 86 -173 9 -40 -4 -21 -53 76
-35 69 -46 95 -66 154 -7 20 -6 20 9 1 9 -11 16 -28 16 -37z m-2831 -46 l-2
-78 -7 65 c-7 59 -5 90 6 90 2 0 3 -35 3 -77z m578 55 c-3 -8 -6 -5 -6 6 -1
11 2 17 5 13 3 -3 4 -12 1 -19z m283 16 c0 -8 -40 -74 -45 -74 -2 0 4 18 12
40 14 34 33 54 33 34z m-708 -16 c-7 -7 -12 -20 -12 -30 0 -10 -4 -18 -10 -18
-5 0 -10 5 -10 12 0 12 29 48 39 48 3 0 0 -5 -7 -12z m282 -17 c-16 -11 -44
-69 -44 -91 0 -12 4 -29 9 -39 6 -11 6 -22 0 -32 -8 -11 -12 -11 -16 -1 -9 22
-22 13 -22 -15 2 -72 -13 -177 -27 -197 -16 -21 -16 -21 -10 6 3 15 2 29 -3
32 -12 8 -21 -31 -14 -64 3 -17 0 -32 -10 -41 -7 -7 -12 -21 -10 -30 3 -10 -3
-33 -12 -53 -10 -20 -14 -43 -11 -52 3 -8 -5 -35 -18 -60 l-24 -45 -3 49 c-4
48 1 92 17 141 5 19 4 22 -6 16 -17 -11 -6 52 14 74 7 9 21 41 30 71 25 81 47
130 77 175 14 22 29 59 32 82 5 41 48 110 56 90 2 -5 0 -12 -5 -16z m1490 14
c15 -12 17 -18 8 -27 -9 -9 -16 -7 -32 7 -36 33 -15 50 24 20z m701 4 c12 -18
-3 -22 -20 -5 -14 14 -14 16 -1 16 8 0 18 -5 21 -11z m-2025 -49 c0 -5 -5 -10
-12 -10 -9 0 -9 -3 0 -12 14 -14 16 -28 3 -28 -12 0 -24 37 -16 50 8 13 25 13
25 0z m124 -25 c-7 -16 -24 -21 -24 -6 0 8 7 13 27 20 1 1 0 -6 -3 -14z m1856
-20 c0 -5 -5 -3 -10 5 -5 8 -10 20 -10 25 0 6 5 3 10 -5 5 -8 10 -19 10 -25z
m369 -15 c0 -9 -6 -4 -14 10 -19 33 -19 49 0 24 8 -10 14 -26 14 -34z m-2032
18 c-3 -8 -6 -5 -6 6 -1 11 2 17 5 13 3 -3 4 -12 1 -19z m-114 -26 c-4 -26 -8
-30 -19 -21 -11 9 -11 15 3 35 19 30 22 28 16 -14z m-49 1 c-19 -78 -34 -88
-49 -33 -4 17 -3 21 3 11 7 -10 13 -6 23 18 17 38 32 41 23 4z m206 17 c0 -5
-4 -10 -10 -10 -5 0 -10 5 -10 10 0 6 5 10 10 10 6 0 10 -4 10 -10z m-291 -61
c-9 -17 -9 -24 0 -27 6 -2 11 -8 11 -14 0 -6 -9 -3 -20 7 -18 16 -18 19 -3 41
19 30 29 24 12 -7z m-664 -28 c-2 -9 -5 -40 -6 -70 -2 -40 1 -55 13 -62 13 -7
14 -13 5 -34 -22 -47 -32 -19 -34 101 -3 107 -1 117 12 100 8 -11 13 -27 10
-35z m2657 -47 c31 -49 61 -101 67 -115 l12 -24 -20 25 c-12 14 -30 43 -42 65
-12 22 -34 59 -50 83 -16 24 -29 48 -29 54 0 16 1 14 62 -88z m-195 61 c8 -22
-6 -33 -17 -15 -13 20 -12 30 0 30 6 0 13 -7 17 -15z m-1707 -26 c0 -5 5 -7
10 -4 6 3 10 2 10 -3 0 -13 -49 -22 -56 -10 -3 4 -10 6 -15 3 -5 -4 -9 -2 -9
4 0 8 9 12 53 20 4 0 7 -4 7 -10z m-17 -88 c-16 -47 -33 -67 -33 -39 0 17 41
100 47 94 2 -2 -4 -27 -14 -55z m114 37 c-3 -8 -6 -5 -6 6 -1 11 2 17 5 13 3
-3 4 -12 1 -19z m-808 -92 c-5 -6 -9 7 -8 35 l1 44 8 -35 c5 -20 5 -39 -1 -44z
m218 52 c-3 -8 -6 -5 -6 6 -1 11 2 17 5 13 3 -3 4 -12 1 -19z m439 -5 c-10
-10 -19 5 -10 18 6 11 8 11 12 0 2 -7 1 -15 -2 -18z m-446 -27 c0 -3 -4 -8
-10 -11 -5 -3 -10 -1 -10 4 0 6 5 11 10 11 6 0 10 -2 10 -4z m-212 -76 c3 -8
7 -26 8 -40 0 -14 4 -33 9 -42 5 -13 3 -18 -9 -18 -10 0 -16 -9 -16 -22 0 -13
-5 -30 -10 -38 -6 -10 -8 7 -5 50 2 36 4 85 5 110 1 25 4 38 7 30 2 -8 7 -22
11 -30z m176 -5 c-23 -36 -30 -23 -8 15 10 17 20 26 22 21 2 -5 -4 -21 -14
-36z m655 23 c12 -32 -21 -68 -47 -52 -36 23 -27 74 13 74 17 0 28 -7 34 -22z
m-882 -30 c-3 -8 -6 -5 -6 6 -1 11 2 17 5 13 3 -3 4 -12 1 -19z m0 -110 c-2
-18 -4 -6 -4 27 0 33 2 48 4 33 2 -15 2 -42 0 -60z m203 62 c0 -5 -4 -10 -10
-10 -5 0 -10 5 -10 10 0 6 5 10 10 10 6 0 10 -4 10 -10z m2854 -22 c14 -28 15
-50 1 -36 -7 7 -25 68 -20 68 2 0 11 -14 19 -32z m-2655 5 c-17 -21 -35 -58
-45 -93 l-6 -25 21 24 c29 33 26 21 -7 -36 -16 -26 -39 -70 -53 -98 -36 -74
-47 -83 -54 -43 -11 60 35 160 117 254 30 34 53 49 27 17z m228 -65 c-3 -7 -5
-2 -5 12 0 14 2 19 5 13 2 -7 2 -19 0 -25z m1688 1 c10 -30 0 -33 -13 -4 -6
14 -7 25 -2 25 5 0 12 -9 15 -21z m-2007 -9 c-7 -10 -14 -17 -17 -15 -4 4 18
35 25 35 2 0 -1 -9 -8 -20z m269 -42 c-2 -13 -4 -3 -4 22 0 25 2 35 4 23 2
-13 2 -33 0 -45z m2302 6 c18 -25 30 -48 27 -51 -3 -4 -7 -4 -9 -2 -1 2 -11
18 -23 34 -20 29 -37 65 -30 65 1 0 17 -21 35 -46z m-2854 -109 c15 -42 61
-73 90 -61 19 7 21 -45 3 -74 -11 -16 -9 -22 7 -34 32 -25 59 -19 73 14 16 35
37 41 26 8 -6 -21 -6 -21 11 -5 15 15 20 16 34 5 9 -7 33 -22 55 -33 21 -10
33 -21 27 -23 -21 -7 -82 -75 -77 -87 2 -7 0 -17 -5 -22 -11 -11 17 -73 33
-73 6 0 9 -3 6 -6 -3 -3 5 -16 19 -30 32 -32 23 -42 -14 -17 -15 11 -59 36
-98 57 -38 20 -100 59 -137 86 -78 59 -75 49 -81 275 -3 93 -1 127 4 100 5
-22 16 -58 24 -80z m2355 10 c0 -5 -9 4 -20 20 -11 17 -20 35 -20 40 0 6 9 -3
20 -20 11 -16 20 -34 20 -40z m-1700 -7 c0 -5 -7 -3 -15 6 -8 8 -15 18 -15 22
0 3 7 1 15 -6 8 -7 15 -17 15 -22z m-510 -30 c0 -6 -7 -5 -15 2 -8 7 -15 17
-15 22 0 6 7 5 15 -2 8 -7 15 -17 15 -22z m524 -24 c32 -31 14 -61 -30 -50
-26 7 -32 34 -12 54 16 16 23 15 42 -4z m1836 -184 c10 -10 25 -40 34 -68 10
-28 24 -56 32 -62 7 -7 14 -19 14 -28 0 -10 -7 -6 -20 11 -11 14 -20 30 -20
35 0 5 -6 15 -14 21 -8 7 -17 24 -21 38 -3 14 -16 40 -29 57 -27 35 -106 180
-106 193 0 4 25 -34 56 -86 31 -51 65 -102 74 -111z m-2239 127 c-10 -9 -11
-8 -5 6 3 10 9 15 12 12 3 -3 0 -11 -7 -18z m1221 -228 c-6 -68 -22 -72 -22
-5 0 42 3 56 13 53 8 -2 11 -19 9 -48z m1378 41 c-8 -5 -19 -10 -25 -10 -5 0
-3 5 5 10 8 5 20 10 25 10 6 0 3 -5 -5 -10z m-2549 -113 c-8 -8 -11 -7 -11 4
0 20 13 34 18 19 3 -7 -1 -17 -7 -23z m153 27 c20 -8 21 -41 1 -61 -19 -18
-27 -12 -31 24 -4 39 2 48 30 37z m916 -4 c0 -5 -5 -10 -11 -10 -6 0 -9 -7 -5
-15 3 -8 1 -15 -3 -15 -9 0 -21 24 -21 41 0 5 9 9 20 9 11 0 20 -4 20 -10z
m-794 -39 c0 -11 -6 -17 -13 -14 -6 3 -9 11 -6 19 7 20 19 17 19 -5z m381 -13
c-3 -7 -5 -2 -5 12 0 14 2 19 5 13 2 -7 2 -19 0 -25z m507 -10 c4 -24 3 -38
-4 -38 -5 0 -10 19 -10 42 0 49 5 47 14 -4z m244 4 c2 -7 -3 -12 -12 -12 -9 0
-16 7 -16 16 0 17 22 14 28 -4z m-368 -12 c0 -5 -5 -10 -11 -10 -5 0 -7 5 -4
10 3 6 8 10 11 10 2 0 4 -4 4 -10z m81 -22 c6 -47 -1 -88 -13 -88 -6 0 -8 10
-4 26 4 14 2 32 -4 39 -12 15 -5 55 10 55 4 0 9 -15 11 -32z m-866 6 c13 -5
14 -8 3 -15 -21 -14 -38 -10 -32 6 7 17 7 17 29 9z m-102 -29 c-22 -30 -21
-30 -58 -5 l-30 21 28 -7 c17 -4 27 -2 27 5 0 6 11 11 25 11 26 0 26 0 8 -25z
m57 -15 c0 -5 -5 -10 -11 -10 -5 0 -7 5 -4 10 3 6 8 10 11 10 2 0 4 -4 4 -10z
m1287 -32 c-3 -8 -6 -5 -6 6 -1 11 2 17 5 13 3 -3 4 -12 1 -19z m-1301 1 c3
-6 15 -9 25 -6 20 6 26 -8 8 -19 -12 -7 -59 15 -59 28 0 12 18 10 26 -3z m961
-21 c-3 -8 -6 -5 -6 6 -1 11 2 17 5 13 3 -3 4 -12 1 -19z m365 -198 c0 -63 -4
-128 -10 -145 -8 -23 -10 10 -10 145 0 125 2 166 9 145 5 -16 10 -82 11 -145z
m-866 134 c-3 -9 -9 -27 -13 -41 l-6 -26 64 7 c89 10 259 13 259 4 0 -5 -6 -9
-12 -9 -44 -5 -74 -7 -164 -13 -56 -3 -109 -8 -118 -12 -36 -14 -12 -24 59
-24 43 0 75 -4 75 -10 0 -5 8 -10 19 -10 10 0 21 -9 24 -20 3 -13 0 -20 -9
-20 -8 0 -14 5 -14 10 0 6 -4 10 -10 10 -5 0 -9 -3 -9 -7 4 -24 -3 -44 -13
-42 -40 5 -48 0 -36 -26 9 -20 8 -28 -5 -43 -10 -10 -17 -26 -17 -36 0 -9 -5
-26 -10 -37 -8 -14 -7 -19 2 -21 7 0 -23 -4 -67 -8 -44 -4 -83 -5 -87 -3 -4 2
3 25 16 51 20 41 23 62 24 159 0 83 5 121 17 147 17 35 43 52 31 20z m898 -31
c3 -16 2 -41 -3 -58 -7 -21 -10 -24 -10 -10 -1 11 -4 37 -7 58 -8 43 11 52 20
10z"/>
<path d="M4002 3338 c-7 -7 -12 -16 -12 -20 0 -12 28 -10 36 3 10 17 -10 31
-24 17z"/>
<path d="M4385 2590 c3 -5 15 -10 26 -10 10 0 19 5 19 10 0 6 -12 10 -26 10
-14 0 -23 -4 -19 -10z"/>
<path d="M4040 1921 c-5 -11 -10 -27 -10 -35 0 -8 -9 -32 -21 -52 -24 -43 -16
-57 26 -46 28 8 30 12 36 68 3 32 4 65 1 72 -6 18 -20 15 -32 -7z"/>
<path d="M3575 650 c3 -5 10 -10 16 -10 5 0 9 5 9 10 0 6 -7 10 -16 10 -8 0
-12 -4 -9 -10z"/>
<path d="M3630 650 c0 -5 5 -10 10 -10 6 0 10 5 10 10 0 6 -4 10 -10 10 -5 0
-10 -4 -10 -10z"/>
<path d="M3455 640 c-3 -5 3 -10 14 -10 11 0 23 5 26 10 3 6 -3 10 -14 10 -11
0 -23 -4 -26 -10z"/>
<path d="M3612 513 c2 -14 -3 -17 -24 -15 -21 3 -28 -1 -28 -14 0 -14 7 -16
46 -10 26 3 60 6 75 6 16 0 29 5 29 10 0 6 -16 10 -35 10 -24 0 -35 5 -35 15
0 8 -7 15 -15 15 -10 0 -15 -7 -13 -17z"/>
<path d="M3440 490 c-8 -5 -11 -12 -7 -16 4 -4 13 -2 19 4 15 15 7 24 -12 12z"/>
<path d="M3060 2290 c0 -11 5 -20 10 -20 6 0 10 9 10 20 0 11 -4 20 -10 20 -5
0 -10 -9 -10 -20z"/>
<path d="M7447 2663 c-4 -3 -7 -12 -7 -19 0 -16 55 -8 85 13 18 12 15 13 -26
13 -25 0 -49 -3 -52 -7z"/>
<path d="M7427 2583 c-13 -12 -7 -23 13 -23 11 0 20 7 20 15 0 15 -21 21 -33
8z"/>
<path d="M6932 2533 c-28 -21 -49 -40 -47 -42 6 -5 89 45 105 63 22 28 -6 17
-58 -21z"/>
<path d="M2311 2514 c0 -11 3 -14 6 -6 3 7 2 16 -1 19 -3 4 -6 -2 -5 -13z"/>
<path d="M1706 2314 c-4 -9 -4 -19 -2 -21 8 -8 26 8 26 23 0 19 -16 18 -24 -2z"/>
<path d="M1890 2000 c0 -6 7 -10 15 -10 8 0 15 2 15 4 0 2 -7 6 -15 10 -8 3
-15 1 -15 -4z"/>
<path d="M3088 2145 c-10 -17 -3 -78 10 -83 7 -2 12 5 11 20 -2 36 -14 74 -21
63z"/>
<path d="M3210 2095 c0 -8 5 -15 10 -15 6 0 10 7 10 15 0 8 -4 15 -10 15 -5 0
-10 -7 -10 -15z"/>
<path d="M3054 2082 c-15 -9 -37 -52 -27 -52 10 1 46 50 41 55 -2 2 -8 1 -14
-3z"/>
<path d="M3100 2021 c0 -25 6 -27 13 -6 4 8 2 17 -3 20 -6 4 -10 -3 -10 -14z"/>
<path d="M3132 1786 c-17 -30 -32 -58 -32 -64 0 -5 -7 -15 -15 -22 -16 -13
-21 -35 -6 -26 14 9 93 146 89 157 -2 5 -18 -15 -36 -45z"/>
<path d="M2891 1650 c-7 -17 -11 -34 -7 -37 6 -7 28 46 24 59 -2 4 -9 -6 -17
-22z"/>
<path d="M5395 2030 c3 -5 8 -10 11 -10 2 0 4 5 4 10 0 6 -5 10 -11 10 -5 0
-7 -4 -4 -10z"/>
<path d="M2686 1558 c-10 -38 -6 -45 9 -18 17 29 18 40 6 40 -5 0 -11 -10 -15
-22z"/>
<path d="M2642 1188 c-7 -7 -12 -28 -11 -47 l1 -36 14 44 c15 48 14 57 -4 39z"/>
<path d="M2672 1003 c-17 -30 -15 -37 4 -19 8 9 14 22 11 29 -2 7 -8 4 -15
-10z"/>
<path d="M2420 945 c0 -8 5 -15 10 -15 6 0 10 7 10 15 0 8 -4 15 -10 15 -5 0
-10 -7 -10 -15z"/>
<path d="M2510 825 c7 -8 16 -12 22 -9 5 3 15 0 23 -6 11 -9 15 -9 15 -1 0 6
-12 16 -26 21 -37 14 -49 13 -34 -5z"/>
<path d="M2637 833 c-10 -9 -9 -23 2 -23 5 0 11 7 15 15 5 15 -5 20 -17 8z"/>
<path d="M2691 821 c-7 -5 -11 -15 -9 -22 3 -10 8 -7 17 9 13 24 12 26 -8 13z"/>
<path d="M2630 770 c0 -5 5 -10 10 -10 6 0 10 5 10 10 0 6 -4 10 -10 10 -5 0
-10 -4 -10 -10z"/>
<path d="M2630 666 c0 -2 7 -7 16 -10 8 -3 12 -2 9 4 -6 10 -25 14 -25 6z"/>
</g>
</svg>
